<svg xmlns:dc="http://purl.org/dc/elements/1.1/" xmlns:cc="http://creativecommons.org/ns#" xmlns:rdf="http://www.w3.org/1999/02/22-rdf-syntax-ns#" xmlns:svg="http://www.w3.org/2000/svg" xmlns="http://www.w3.org/2000/svg" xmlns:xlink="http://www.w3.org/1999/xlink" id="svg423663" viewBox="0 0 1024 768" height="768px" width="1024px" version="1.1">
  <metadata id="metadata423669">
    <rdf:rdf>
      <cc:work rdf:about="">
        <dc:format>image/svg+xml</dc:format>
        <dc:type rdf:resource="http://purl.org/dc/dcmitype/StillImage"></dc:type>
      </cc:work>
    </rdf:rdf>
  </metadata>
  <defs id="defs423667"></defs>
  <linearGradient spreadMethod="pad" y2="30%" x2="-10%" y1="120%" x1="30%" id="3d_gradient2-logo-f8ea572e-f083-4a7e-adb8-a665e105f551">
    <stop id="stop423644" stop-opacity="1" stop-color="#ffffff" offset="0%"></stop>
    <stop id="stop423646" stop-opacity="1" stop-color="#000000" offset="100%"></stop>
  </linearGradient>
  <linearGradient gradientTransform="rotate(-30)" spreadMethod="pad" y2="30%" x2="-10%" y1="120%" x1="30%" id="3d_gradient3-logo-f8ea572e-f083-4a7e-adb8-a665e105f551">
    <stop id="stop423649" stop-opacity="1" stop-color="#ffffff" offset="0%"></stop>
    <stop id="stop423651" stop-opacity="1" stop-color="#cccccc" offset="50%"></stop>
    <stop id="stop423653" stop-opacity="1" stop-color="#000000" offset="100%"></stop>
  </linearGradient>
  <g id="logo-group">
    <image xlink:href="" id="container" x="272" y="144" width="480" height="480" style="display: none;" transform="translate(0 0)"></image>
    <g id="logo-center" transform="translate(1.1368683772161603e-13 0)">
      <image xlink:href="" id="icon_container" x="0" y="0" style="display: none;"></image>
      <g id="slogan" style="font-style:normal;font-weight:300;font-size:32px;line-height:1;font-family:'Montserrat Light Alt1';font-variant-ligatures:none;text-align:center;text-anchor:middle" transform="translate(0 0)"></g>
      <g id="title" style="font-style:normal;font-weight:normal;font-size:72px;line-height:1;font-family:'Brandmark Sans 7';font-variant-ligatures:normal;text-align:center;text-anchor:middle" transform="translate(0 0)">
        <path id="path423672" style="font-style:normal;font-weight:normal;font-size:72px;line-height:1;font-family:'Brandmark Sans 7';font-variant-ligatures:normal;text-align:center;text-anchor:middle" d="m 193.42194,0 v -44.784 h 18.504 V -50.4 h -43.128 v 5.616 h 18.432 V 0 Z" stroke-width="0" stroke-linejoin="miter" stroke-miterlimit="2" fill="#776e52" stroke="#776e52" transform="translate(0 297.235) translate(165.2072187500001 63.464000000000006) scale(0.75) translate(-168.79794 50.4)"></path>
        <path id="path423674" style="font-style:normal;font-weight:normal;font-size:72px;line-height:1;font-family:'Brandmark Sans 7';font-variant-ligatures:normal;text-align:center;text-anchor:middle" d="m 211.71669,0 5.04,-11.232 h 28.584 l 5.04,11.232 h 7.344 l -23.616,-50.4 h -6.192 L 204.44469,0 Z m 7.488,-16.776 11.808,-26.712 11.88,26.712 z" stroke-width="0" stroke-linejoin="miter" stroke-miterlimit="2" fill="#776e52" stroke="#776e52" transform="translate(0 297.235) translate(206.9422812500001 63.464000000000006) scale(0.75) translate(-204.44469 50.4)"></path>
        <path id="path423676" style="font-style:normal;font-weight:normal;font-size:72px;line-height:1;font-family:'Brandmark Sans 7';font-variant-ligatures:normal;text-align:center;text-anchor:middle" d="m 274.84381,0 v -44.784 h 18.504 V -50.4 h -43.128 v 5.616 h 18.432 V 0 Z" stroke-width="0" stroke-linejoin="miter" stroke-miterlimit="2" fill="#776e52" stroke="#776e52" transform="translate(0 297.235) translate(256.2736212500001 63.464000000000006) scale(0.75) translate(-250.21981 50.4)"></path>
        <path id="path423678" style="font-style:normal;font-weight:normal;font-size:72px;line-height:1;font-family:'Brandmark Sans 7';font-variant-ligatures:normal;text-align:center;text-anchor:middle" d="m 302.90919,0 v -50.4 h -6.192 V 0 Z" stroke-width="0" stroke-linejoin="miter" stroke-miterlimit="2" fill="#776e52" stroke="#776e52" transform="translate(0 297.235) translate(306.1466562500001 63.464000000000006) scale(0.75) translate(-296.71719 50.4)"></path>
        <path id="path423680" style="font-style:normal;font-weight:normal;font-size:72px;line-height:1;font-family:'Brandmark Sans 7';font-variant-ligatures:normal;text-align:center;text-anchor:middle" d="m 313.38856,0 5.04,-11.232 h 28.584 l 5.04,11.232 h 7.344 l -23.616,-50.4 h -6.192 L 306.11656,0 Z m 7.488,-16.776 11.808,-26.712 11.88,26.712 z" stroke-width="0" stroke-linejoin="miter" stroke-miterlimit="2" fill="#776e52" stroke="#776e52" transform="translate(0 297.235) translate(328.19618375000005 63.464000000000006) scale(0.75) translate(-306.11656 50.4)"></path>
        <path id="path423682" style="font-style:normal;font-weight:normal;font-size:72px;line-height:1;font-family:'Brandmark Sans 7';font-variant-ligatures:normal;text-align:center;text-anchor:middle" d="M 368.79031,-43.704 399.53431,0 h 9.216 v -50.256 h -6.192 v 43.704 l -30.672,-43.704 h -9.216 V 0 h 6.12 z m 21.456,51.264 c 3.672,3.312 8.64,5.04 13.752,5.04 8.208,0 15.48,-4.392 18.504,-11.304 L 423.15031,0 h 0.072 l 0.576,-1.296 0.504,-0.936 h -0.072 l 3.96,-8.928 h 28.584 l 4.968,11.16 h 7.272 l -23.472,-50.256 h -6.12 l -23.04,49.32 c -2.016,4.608 -6.912,7.56 -12.384,7.56 -3.456,0 -6.696,-1.224 -9.216,-3.384 z m 40.392,-24.336 11.808,-26.568 11.88,26.568 z" stroke-width="0" stroke-linejoin="miter" stroke-miterlimit="2" fill="#776e52" stroke="#776e52" transform="translate(0 297.235) translate(385.61149624999996 63.572) scale(0.75) translate(-362.67031 50.256)"></path>
        <path id="path423684" style="font-style:normal;font-weight:normal;font-size:72px;line-height:1;font-family:'Brandmark Sans 7';font-variant-ligatures:normal;text-align:center;text-anchor:middle" d="m 553.31281,-25.2 c 0,-14.328 -12.816,-26.064 -28.584,-26.064 -15.84,0 -28.656,11.736 -28.656,26.064 0,14.328 12.816,26.064 28.656,26.064 2.592,0 5.04,-0.36 7.416,-0.936 l 7.848,7.128 4.464,-3.96 -6.048,-5.472 c 9,-4.392 14.904,-13.032 14.904,-22.824 z m -50.184,0 c 0,-11.304 9.648,-20.448 21.6,-20.448 11.88,0 21.528,9.144 21.528,20.448 0,8.208 -5.112,15.336 -12.6,18.576 l -6.84,-6.336 -4.392,4.032 4.536,4.032 c -0.72,0.072 -1.512,0.144 -2.232,0.144 -11.952,0 -21.6,-9.144 -21.6,-20.448 z" stroke-width="0" stroke-linejoin="miter" stroke-miterlimit="2" fill="#776e52" stroke="#776e52" transform="translate(0 297.235) translate(500.66337124999995 62.816) scale(0.75) translate(-496.07281 51.264)"></path>
        <path id="path423686" style="font-style:normal;font-weight:normal;font-size:72px;line-height:1;font-family:'Brandmark Sans 7';font-variant-ligatures:normal;text-align:center;text-anchor:middle" d="M 600.90031,-16.776 V -50.4 h -6.12 v 33.624 c 0,2.16 -0.72,4.176 -2.088,5.976 -1.368,1.944 -3.168,3.384 -5.544,4.464 -2.376,1.008 -4.968,1.584 -7.776,1.584 -2.808,0 -5.328,-0.576 -7.704,-1.584 -2.376,-1.08 -4.176,-2.52 -5.616,-4.464 -1.368,-1.8 -2.088,-3.816 -2.088,-5.976 V -50.4 h -6.12 v 33.624 c 0,3.096 1.008,6.048 2.88,8.784 1.944,2.736 4.536,4.824 7.848,6.48 3.312,1.584 6.912,2.376 10.8,2.376 3.96,0 7.488,-0.792 10.8,-2.376 3.384,-1.656 5.976,-3.744 7.848,-6.48 2.016,-2.736 2.88,-5.688 2.88,-8.784 z" stroke-width="0" stroke-linejoin="miter" stroke-miterlimit="2" fill="#cfca9f" stroke="#cfca9f" transform="translate(0 297.235) translate(561.9919962499998 63.464000000000006) scale(0.75) translate(-557.84431 50.4)"></path>
        <path id="path423688" style="font-style:normal;font-weight:normal;font-size:72px;line-height:1;font-family:'Brandmark Sans 7';font-variant-ligatures:normal;text-align:center;text-anchor:middle" d="m 607.63906,0 h 35.424 v -5.616 h -29.232 v -17.496 h 26.136 v -5.616 h -26.136 v -16.056 h 27.72 V -50.4 h -33.912 z" stroke-width="0" stroke-linejoin="miter" stroke-miterlimit="2" fill="#cfca9f" stroke="#cfca9f" transform="translate(0 297.235) translate(614.3380587499998 63.464000000000006) scale(0.75) translate(-607.63906 50.4)"></path>
        <path id="path423690" style="font-style:normal;font-weight:normal;font-size:72px;line-height:1;font-family:'Brandmark Sans 7';font-variant-ligatures:normal;text-align:center;text-anchor:middle" d="m 700.34244,-13.968 h -7.848 c -3.816,5.472 -10.512,9.216 -18,9.216 -11.952,0 -21.6,-9.144 -21.6,-20.448 0,-11.304 9.648,-20.448 21.6,-20.448 6.912,0 12.96,3.096 16.92,7.848 h 8.208 c -5.04,-7.992 -14.328,-13.464 -25.128,-13.464 -15.84,0 -28.656,11.736 -28.656,26.064 0,14.328 12.816,26.064 28.656,26.064 11.376,0 21.24,-6.12 25.848,-14.832 z" stroke-width="0" stroke-linejoin="miter" stroke-miterlimit="2" fill="#cfca9f" stroke="#cfca9f" transform="translate(0 297.235) translate(657.9875937499999 62.816) scale(0.75) translate(-645.83844 51.264)"></path>
        <path id="path423692" style="font-style:normal;font-weight:normal;font-size:72px;line-height:1;font-family:'Brandmark Sans 7';font-variant-ligatures:normal;text-align:center;text-anchor:middle" d="m 731.16631,0.864 c 5.112,0 10.008,-1.224 14.328,-3.528 4.464,-2.304 7.92,-5.544 10.44,-9.504 2.52,-4.032 3.816,-8.352 3.816,-13.032 0,-4.68 -1.296,-9.072 -3.816,-13.104 -2.52,-3.96 -5.976,-7.128 -10.44,-9.432 -4.32,-2.304 -9.216,-3.528 -14.328,-3.528 -5.184,0 -10.008,1.224 -14.328,3.528 -4.464,2.304 -7.92,5.472 -10.44,9.432 -2.592,4.032 -3.888,8.424 -3.888,13.104 0,4.68 1.296,9 3.888,13.032 2.52,3.96 5.976,7.2 10.44,9.504 4.32,2.304 9.144,3.528 14.328,3.528 z m -21.6,-26.064 c 0,-3.744 1.008,-7.056 2.88,-10.224 2.016,-3.168 4.608,-5.616 7.92,-7.488 3.24,-1.8 6.84,-2.736 10.8,-2.736 3.888,0 7.488,0.936 10.872,2.736 3.312,1.872 5.904,4.32 7.848,7.488 1.872,3.168 2.808,6.48 2.808,10.224 0,3.744 -0.936,7.056 -2.808,10.224 -1.944,3.168 -4.536,5.616 -7.848,7.416 -3.384,1.872 -6.984,2.808 -10.872,2.808 -3.96,0 -7.56,-0.936 -10.8,-2.808 -3.312,-1.8 -5.904,-4.248 -7.92,-7.416 -1.872,-3.168 -2.88,-6.48 -2.88,-10.224 z" stroke-width="0" stroke-linejoin="miter" stroke-miterlimit="2" fill="#cfca9f" stroke="#cfca9f" transform="translate(0 297.235) translate(715.49149625 62.816) scale(0.75) translate(-702.51031 51.264)"></path>
        <path id="path423694" style="font-style:normal;font-weight:normal;font-size:72px;line-height:1;font-family:'Brandmark Sans 7';font-variant-ligatures:normal;text-align:center;text-anchor:middle" d="M 771.04981,-43.848 801.86581,0 h 9.144 v -50.4 h -6.12 v 43.848 l -30.744,-43.848 h -9.288 V 0 h 6.192 z" stroke-width="0" stroke-linejoin="miter" stroke-miterlimit="2" fill="#cfca9f" stroke="#cfca9f" transform="translate(0 297.235) translate(777.2521212499998 63.464000000000006) scale(0.75) translate(-764.85781 50.4)"></path>
        <path id="path423696" style="font-style:normal;font-weight:normal;font-size:72px;line-height:1;font-family:'Brandmark Sans 7';font-variant-ligatures:normal;text-align:center;text-anchor:middle" d="m 818.15469,0 h 35.424 v -5.616 h -29.232 v -17.496 h 26.136 v -5.616 h -26.136 v -16.056 h 27.72 V -50.4 h -33.912 z" stroke-width="0" stroke-linejoin="miter" stroke-miterlimit="2" fill="#cfca9f" stroke="#cfca9f" transform="translate(0 297.235) translate(832.2247812499999 63.464000000000006) scale(0.75) translate(-818.15469 50.4)"></path>
      </g>
      <image xlink:href="" id="icon" x="0" y="0" style="display: none;"></image>
    </g>
  </g>
</svg>